<svg height="480pt" viewBox="-72 0 480 480.00039" width="480pt" xmlns="http://www.w3.org/2000/svg"><path d="m255.464844 0v16h-26l-30.160156 104h-16.71875l33.199218-114.238281c.964844-3.4375 4.113282-5.7968752 7.679688-5.761719zm0 0"/><path d="m213.929688 192h-35.554688l-19.230469 66.230469-15.359375-4.460938 17.933594-61.769531h-104.71875l70.464844 89v183h-56v16h128v-16h-56v-183zm0 0"/><path d="m287.464844 64c-23.414063.03125-43.402344 16.921875-47.335938 40h47.335938c3.066406 0 5.867187 1.753906 7.203125 4.515625 1.335937 2.765625.972656 6.046875-.933594 8.453125l-29.375 37.105469c7.066406 3.925781 15.023437 5.96875 23.105469 5.925781 26.507812 0 48-21.488281 48-48 0-26.507812-21.492188-48-48-48zm0 0"/><path d="m182.617188 120h-182.617188l44.335938 56h122.023437zm0 0"/><path d="m199.28125 120-16.265625 56h43.578125l44.335938-56zm0 0"/></svg>