<svg id="Capa_1" enable-background="new 0 0 512.001 512.001" height="512" viewBox="0 0 512.001 512.001" width="512" xmlns="http://www.w3.org/2000/svg"><g><path d="m60.001 30h422v467c0 4.084 1.613 7.903 4.542 10.753 2.924 2.844 6.78 4.367 10.878 4.241 8.077-.223 14.58-6.863 14.58-14.994v-497h-452z"/><path d="m75.001 135h302v122h-302z"/><path d="m271.001 347h106v90h-106z"/><path d="m454.544 512c-1.673-4.749-2.543-9.803-2.543-15v-437h-452v437c0 8.271 6.729 15 15 15zm-47.543-45h-166v-150h166zm-362-362h362v182h-362zm0 212h166v30h-166zm0 60h166v30h-166zm0 60h166v30h-166z"/></g></svg>